<svg class="main-svg" xmlns="http://www.w3.org/2000/svg" xmlns:xlink="http://www.w3.org/1999/xlink" width="700" height="500" viewBox="0 0 700 500"><rect x="0" y="0" width="700" height="500" style="fill: rgb(255, 255, 255); fill-opacity: 1;"/><defs id="defs-f32892"><g class="clips"><clipPath id="clipf32892xyplot" class="plotclip"><rect width="540" height="320"/></clipPath><clipPath class="axesclip" id="clipf32892x"><rect x="80" y="0" width="540" height="500"/></clipPath><clipPath class="axesclip" id="clipf32892y"><rect x="0" y="100" width="700" height="320"/></clipPath><clipPath class="axesclip" id="clipf32892xy"><rect x="80" y="100" width="540" height="320"/></clipPath></g><g class="gradients"/></defs><g class="bglayer"><rect class="bg" x="80" y="100" width="540" height="320" style="fill: rgb(229, 236, 246); fill-opacity: 1; stroke-width: 0;"/></g><g class="layer-below"><g class="imagelayer"/><g class="shapelayer"/></g><g class="cartesianlayer"><g class="subplot xy"><g class="layer-subplot"><g class="shapelayer"/><g class="imagelayer"/></g><g class="gridlayer"><g class="x"><path class="xgrid crisp" transform="translate(205.35,0)" d="M0,100v320" style="stroke: rgb(255, 255, 255); stroke-opacity: 1; stroke-width: 1px;"/><path class="xgrid crisp" transform="translate(299.56,0)" d="M0,100v320" style="stroke: rgb(255, 255, 255); stroke-opacity: 1; stroke-width: 1px;"/><path class="xgrid crisp" transform="translate(393.77,0)" d="M0,100v320" style="stroke: rgb(255, 255, 255); stroke-opacity: 1; stroke-width: 1px;"/><path class="xgrid crisp" transform="translate(487.98,0)" d="M0,100v320" style="stroke: rgb(255, 255, 255); stroke-opacity: 1; stroke-width: 1px;"/><path class="xgrid crisp" transform="translate(582.19,0)" d="M0,100v320" style="stroke: rgb(255, 255, 255); stroke-opacity: 1; stroke-width: 1px;"/></g><g class="y"><path class="ygrid crisp" transform="translate(0,338.31)" d="M80,0h540" style="stroke: rgb(255, 255, 255); stroke-opacity: 1; stroke-width: 1px;"/><path class="ygrid crisp" transform="translate(0,286.27)" d="M80,0h540" style="stroke: rgb(255, 255, 255); stroke-opacity: 1; stroke-width: 1px;"/><path class="ygrid crisp" transform="translate(0,234.23)" d="M80,0h540" style="stroke: rgb(255, 255, 255); stroke-opacity: 1; stroke-width: 1px;"/><path class="ygrid crisp" transform="translate(0,182.19)" d="M80,0h540" style="stroke: rgb(255, 255, 255); stroke-opacity: 1; stroke-width: 1px;"/><path class="ygrid crisp" transform="translate(0,130.15)" d="M80,0h540" style="stroke: rgb(255, 255, 255); stroke-opacity: 1; stroke-width: 1px;"/></g></g><g class="zerolinelayer"><path class="xzl zl crisp" transform="translate(111.14,0)" d="M0,100v320" style="stroke: rgb(255, 255, 255); stroke-opacity: 1; stroke-width: 2px;"/><path class="yzl zl crisp" transform="translate(0,390.35)" d="M80,0h540" style="stroke: rgb(255, 255, 255); stroke-opacity: 1; stroke-width: 2px;"/></g><path class="xlines-below"/><path class="ylines-below"/><g class="overlines-below"/><g class="xaxislayer-below"/><g class="yaxislayer-below"/><g class="overaxes-below"/><g class="plot" transform="translate(80, 100)" clip-path="url('#clipf32892xyplot')"><g class="scatterlayer mlayer"><g class="trace scatter tracef241c1" style="stroke-miterlimit: 2; opacity: 1;"><g class="fills"/><g class="errorbars"/><g class="lines"/><g class="points"><path class="point" transform="translate(74.82,208.38)" d="M5.72,0A5.72,5.72 0 1,1 0,-5.72A5.72,5.72 0 0,1 5.72,0Z" style="opacity: 0.6; stroke-width: 1px; fill: rgb(58, 83, 139); fill-opacity: 1; stroke: rgb(255, 255, 255); stroke-opacity: 1;"/><path class="point" transform="translate(331.65,232.24)" d="M0.07,0A0.07,0.07 0 1,1 0,-0.07A0.07,0.07 0 0,1 0.07,0Z" style="opacity: 0.6; stroke-width: 1px; fill: rgb(52, 97, 141); fill-opacity: 1; stroke: rgb(255, 255, 255); stroke-opacity: 1;"/><path class="point" transform="translate(468.32,119.62)" d="M9.39,0A9.39,9.39 0 1,1 0,-9.39A9.39,9.39 0 0,1 9.39,0Z" style="opacity: 0.6; stroke-width: 1px; fill: rgb(44, 116, 142); fill-opacity: 1; stroke: rgb(255, 255, 255); stroke-opacity: 1;"/><path class="point" transform="translate(390.93,96.38)" d="M3.56,0A3.56,3.56 0 1,1 0,-3.56A3.56,3.56 0 0,1 3.56,0Z" style="opacity: 0.6; stroke-width: 1px; fill: rgb(71, 35, 115); fill-opacity: 1; stroke: rgb(255, 255, 255); stroke-opacity: 1;"/><path class="point" transform="translate(199.47,229.77)" d="M8.79,0A8.79,8.79 0 1,1 0,-8.79A8.79,8.79 0 0,1 8.79,0Z" style="opacity: 0.6; stroke-width: 1px; fill: rgb(71, 43, 122); fill-opacity: 1; stroke: rgb(255, 255, 255); stroke-opacity: 1;"/><path class="point" transform="translate(490.99,196.63)" d="M9.51,0A9.51,9.51 0 1,1 0,-9.51A9.51,9.51 0 0,1 9.51,0Z" style="opacity: 0.6; stroke-width: 1px; fill: rgb(50, 180, 123); fill-opacity: 1; stroke: rgb(255, 255, 255); stroke-opacity: 1;"/><path class="point" transform="translate(358.08,124.6)" d="M9.12,0A9.12,9.12 0 1,1 0,-9.12A9.12,9.12 0 0,1 9.12,0Z" style="opacity: 0.6; stroke-width: 1px; fill: rgb(157, 217, 58); fill-opacity: 1; stroke: rgb(255, 255, 255); stroke-opacity: 1;"/><path class="point" transform="translate(143.99,31.36)" d="M12.28,0A12.28,12.28 0 1,1 0,-12.28A12.28,12.28 0 0,1 12.28,0Z" style="opacity: 0.6; stroke-width: 1px; fill: rgb(235, 229, 39); fill-opacity: 1; stroke: rgb(255, 255, 255); stroke-opacity: 1;"/><path class="point" transform="translate(325.02,248.29)" d="M3.88,0A3.88,3.88 0 1,1 0,-3.88A3.88,3.88 0 0,1 3.88,0Z" style="opacity: 0.6; stroke-width: 1px; fill: rgb(146, 214, 65); fill-opacity: 1; stroke: rgb(255, 255, 255); stroke-opacity: 1;"/><path class="point" transform="translate(78.78,61.2)" d="M14.82,0A14.82,14.82 0 1,1 0,-14.82A14.82,14.82 0 0,1 14.82,0Z" style="opacity: 0.6; stroke-width: 1px; fill: rgb(50, 179, 123); fill-opacity: 1; stroke: rgb(255, 255, 255); stroke-opacity: 1;"/><path class="point" transform="translate(461.04,218.4)" d="M13.99,0A13.99,13.99 0 1,1 0,-13.99A13.99,13.99 0 0,1 13.99,0Z" style="opacity: 0.6; stroke-width: 1px; fill: rgb(114, 207, 86); fill-opacity: 1; stroke: rgb(255, 255, 255); stroke-opacity: 1;"/><path class="point" transform="translate(82.4,262.1)" d="M4.96,0A4.96,4.96 0 1,1 0,-4.96A4.96,4.96 0 0,1 4.96,0Z" style="opacity: 0.6; stroke-width: 1px; fill: rgb(201, 225, 41); fill-opacity: 1; stroke: rgb(255, 255, 255); stroke-opacity: 1;"/><path class="point" transform="translate(91.18,54.98)" d="M11.05,0A11.05,11.05 0 1,1 0,-11.05A11.05,11.05 0 0,1 11.05,0Z" style="opacity: 0.6; stroke-width: 1px; fill: rgb(223, 227, 39); fill-opacity: 1; stroke: rgb(255, 255, 255); stroke-opacity: 1;"/><path class="point" transform="translate(325.53,216.39)" d="M1.17,0A1.17,1.17 0 1,1 0,-1.17A1.17,1.17 0 0,1 1.17,0Z" style="opacity: 0.6; stroke-width: 1px; fill: rgb(43, 117, 142); fill-opacity: 1; stroke: rgb(255, 255, 255); stroke-opacity: 1;"/><path class="point" transform="translate(277.75,73.04)" d="M5.03,0A5.03,5.03 0 1,1 0,-5.03A5.03,5.03 0 0,1 5.03,0Z" style="opacity: 0.6; stroke-width: 1px; fill: rgb(170, 219, 50); fill-opacity: 1; stroke: rgb(255, 255, 255); stroke-opacity: 1;"/><path class="point" transform="translate(151,201.59)" d="M14.89,0A14.89,14.89 0 1,1 0,-14.89A14.89,14.89 0 0,1 14.89,0Z" style="opacity: 0.6; stroke-width: 1px; fill: rgb(40, 126, 142); fill-opacity: 1; stroke: rgb(255, 255, 255); stroke-opacity: 1;"/><path class="point" transform="translate(317.94,151.13)" d="M2.88,0A2.88,2.88 0 1,1 0,-2.88A2.88,2.88 0 0,1 2.88,0Z" style="opacity: 0.6; stroke-width: 1px; fill: rgb(66, 188, 113); fill-opacity: 1; stroke: rgb(255, 255, 255); stroke-opacity: 1;"/><path class="point" transform="translate(345.76,180.91)" d="M7.67,0A7.67,7.67 0 1,1 0,-7.67A7.67,7.67 0 0,1 7.67,0Z" style="opacity: 0.6; stroke-width: 1px; fill: rgb(203, 225, 41); fill-opacity: 1; stroke: rgb(255, 255, 255); stroke-opacity: 1;"/><path class="point" transform="translate(58.61,136.52)" d="M4.23,0A4.23,4.23 0 1,1 0,-4.23A4.23,4.23 0 0,1 4.23,0Z" style="opacity: 0.6; stroke-width: 1px; fill: rgb(51, 99, 141); fill-opacity: 1; stroke: rgb(255, 255, 255); stroke-opacity: 1;"/><path class="point" transform="translate(290.05,114.75)" d="M14.78,0A14.78,14.78 0 1,1 0,-14.78A14.78,14.78 0 0,1 14.78,0Z" style="opacity: 0.6; stroke-width: 1px; fill: rgb(67, 55, 128); fill-opacity: 1; stroke: rgb(255, 255, 255); stroke-opacity: 1;"/><path class="point" transform="translate(272.48,88.06)" d="M8.5,0A8.5,8.5 0 1,1 0,-8.5A8.5,8.5 0 0,1 8.5,0Z" style="opacity: 0.6; stroke-width: 1px; fill: rgb(37, 133, 141); fill-opacity: 1; stroke: rgb(255, 255, 255); stroke-opacity: 1;"/><path class="point" transform="translate(408.79,194.21)" d="M2.3,0A2.3,2.3 0 1,1 0,-2.3A2.3,2.3 0 0,1 2.3,0Z" style="opacity: 0.6; stroke-width: 1px; fill: rgb(34, 161, 135); fill-opacity: 1; stroke: rgb(255, 255, 255); stroke-opacity: 1;"/><path class="point" transform="translate(293.49,219.38)" d="M12.39,0A12.39,12.39 0 1,1 0,-12.39A12.39,12.39 0 0,1 12.39,0Z" style="opacity: 0.6; stroke-width: 1px; fill: rgb(72, 37, 117); fill-opacity: 1; stroke: rgb(255, 255, 255); stroke-opacity: 1;"/><path class="point" transform="translate(452.92,227.25)" d="M8.55,0A8.55,8.55 0 1,1 0,-8.55A8.55,8.55 0 0,1 8.55,0Z" style="opacity: 0.6; stroke-width: 1px; fill: rgb(72, 37, 118); fill-opacity: 1; stroke: rgb(255, 255, 255); stroke-opacity: 1;"/><path class="point" transform="translate(187,289.42)" d="M11.66,0A11.66,11.66 0 1,1 0,-11.66A11.66,11.66 0 0,1 11.66,0Z" style="opacity: 0.6; stroke-width: 1px; fill: rgb(68, 53, 127); fill-opacity: 1; stroke: rgb(255, 255, 255); stroke-opacity: 1;"/><path class="point" transform="translate(400.36,84.01)" d="M12.87,0A12.87,12.87 0 1,1 0,-12.87A12.87,12.87 0 0,1 12.87,0Z" style="opacity: 0.6; stroke-width: 1px; fill: rgb(81, 194, 105); fill-opacity: 1; stroke: rgb(255, 255, 255); stroke-opacity: 1;"/><path class="point" transform="translate(58.69,257.4)" d="M13.65,0A13.65,13.65 0 1,1 0,-13.65A13.65,13.65 0 0,1 13.65,0Z" style="opacity: 0.6; stroke-width: 1px; fill: rgb(180, 222, 44); fill-opacity: 1; stroke: rgb(255, 255, 255); stroke-opacity: 1;"/><path class="point" transform="translate(335.94,37.29)" d="M10.13,0A10.13,10.13 0 1,1 0,-10.13A10.13,10.13 0 0,1 10.13,0Z" style="opacity: 0.6; stroke-width: 1px; fill: rgb(69, 11, 93); fill-opacity: 1; stroke: rgb(255, 255, 255); stroke-opacity: 1;"/><path class="point" transform="translate(214.4,269.06)" d="M7.53,0A7.53,7.53 0 1,1 0,-7.53A7.53,7.53 0 0,1 7.53,0Z" style="opacity: 0.6; stroke-width: 1px; fill: rgb(69, 13, 95); fill-opacity: 1; stroke: rgb(255, 255, 255); stroke-opacity: 1;"/><path class="point" transform="translate(115.37,238.76)" d="M7.7,0A7.7,7.7 0 1,1 0,-7.7A7.7,7.7 0 0,1 7.7,0Z" style="opacity: 0.6; stroke-width: 1px; fill: rgb(206, 225, 41); fill-opacity: 1; stroke: rgb(255, 255, 255); stroke-opacity: 1;"/><path class="point" transform="translate(419.53,182.08)" d="M13.54,0A13.54,13.54 0 1,1 0,-13.54A13.54,13.54 0 0,1 13.54,0Z" style="opacity: 0.6; stroke-width: 1px; fill: rgb(132, 211, 74); fill-opacity: 1; stroke: rgb(255, 255, 255); stroke-opacity: 1;"/><path class="point" transform="translate(227.25,33.71)" d="M3.4,0A3.4,3.4 0 1,1 0,-3.4A3.4,3.4 0 0,1 3.4,0Z" style="opacity: 0.6; stroke-width: 1px; fill: rgb(31, 157, 137); fill-opacity: 1; stroke: rgb(255, 255, 255); stroke-opacity: 1;"/><path class="point" transform="translate(326.65,182.55)" d="M11.84,0A11.84,11.84 0 1,1 0,-11.84A11.84,11.84 0 0,1 11.84,0Z" style="opacity: 0.6; stroke-width: 1px; fill: rgb(41, 123, 142); fill-opacity: 1; stroke: rgb(255, 255, 255); stroke-opacity: 1;"/><path class="point" transform="translate(411.41,275.07)" d="M8.05,0A8.05,8.05 0 1,1 0,-8.05A8.05,8.05 0 0,1 8.05,0Z" style="opacity: 0.6; stroke-width: 1px; fill: rgb(132, 211, 74); fill-opacity: 1; stroke: rgb(255, 255, 255); stroke-opacity: 1;"/><path class="point" transform="translate(222.21,166.05)" d="M14.31,0A14.31,14.31 0 1,1 0,-14.31A14.31,14.31 0 0,1 14.31,0Z" style="opacity: 0.6; stroke-width: 1px; fill: rgb(34, 162, 135); fill-opacity: 1; stroke: rgb(255, 255, 255); stroke-opacity: 1;"/><path class="point" transform="translate(319.03,88.09)" d="M14.27,0A14.27,14.27 0 1,1 0,-14.27A14.27,14.27 0 0,1 14.27,0Z" style="opacity: 0.6; stroke-width: 1px; fill: rgb(61, 75, 137); fill-opacity: 1; stroke: rgb(255, 255, 255); stroke-opacity: 1;"/><path class="point" transform="translate(82.02,141.48)" d="M13.13,0A13.13,13.13 0 1,1 0,-13.13A13.13,13.13 0 0,1 13.13,0Z" style="opacity: 0.6; stroke-width: 1px; fill: rgb(34, 148, 139); fill-opacity: 1; stroke: rgb(255, 255, 255); stroke-opacity: 1;"/><path class="point" transform="translate(487.55,241.82)" d="M4.28,0A4.28,4.28 0 1,1 0,-4.28A4.28,4.28 0 0,1 4.28,0Z" style="opacity: 0.6; stroke-width: 1px; fill: rgb(248, 230, 37); fill-opacity: 1; stroke: rgb(255, 255, 255); stroke-opacity: 1;"/><path class="point" transform="translate(404.77,59.39)" d="M13.97,0A13.97,13.97 0 1,1 0,-13.97A13.97,13.97 0 0,1 13.97,0Z" style="opacity: 0.6; stroke-width: 1px; fill: rgb(48, 177, 125); fill-opacity: 1; stroke: rgb(255, 255, 255); stroke-opacity: 1;"/><path class="point" transform="translate(381.77,162.16)" d="M3.21,0A3.21,3.21 0 1,1 0,-3.21A3.21,3.21 0 0,1 3.21,0Z" style="opacity: 0.6; stroke-width: 1px; fill: rgb(68, 5, 88); fill-opacity: 1; stroke: rgb(255, 255, 255); stroke-opacity: 1;"/><path class="point" transform="translate(420.61,77.89)" d="M2.97,0A2.97,2.97 0 1,1 0,-2.97A2.97,2.97 0 0,1 2.97,0Z" style="opacity: 0.6; stroke-width: 1px; fill: rgb(136, 212, 72); fill-opacity: 1; stroke: rgb(255, 255, 255); stroke-opacity: 1;"/><path class="point" transform="translate(109.47,125.72)" d="M2.65,0A2.65,2.65 0 1,1 0,-2.65A2.65,2.65 0 0,1 2.65,0Z" style="opacity: 0.6; stroke-width: 1px; fill: rgb(154, 216, 60); fill-opacity: 1; stroke: rgb(255, 255, 255); stroke-opacity: 1;"/><path class="point" transform="translate(473.57,48.2)" d="M3.66,0A3.66,3.66 0 1,1 0,-3.66A3.66,3.66 0 0,1 3.66,0Z" style="opacity: 0.6; stroke-width: 1px; fill: rgb(48, 177, 125); fill-opacity: 1; stroke: rgb(255, 255, 255); stroke-opacity: 1;"/><path class="point" transform="translate(251.47,260.72)" d="M8.92,0A8.92,8.92 0 1,1 0,-8.92A8.92,8.92 0 0,1 8.92,0Z" style="opacity: 0.6; stroke-width: 1px; fill: rgb(130, 211, 75); fill-opacity: 1; stroke: rgb(255, 255, 255); stroke-opacity: 1;"/><path class="point" transform="translate(261.93,36.62)" d="M13.83,0A13.83,13.83 0 1,1 0,-13.83A13.83,13.83 0 0,1 13.83,0Z" style="opacity: 0.6; stroke-width: 1px; fill: rgb(38, 131, 142); fill-opacity: 1; stroke: rgb(255, 255, 255); stroke-opacity: 1;"/><path class="point" transform="translate(171.8,288.09)" d="M9.07,0A9.07,9.07 0 1,1 0,-9.07A9.07,9.07 0 0,1 9.07,0Z" style="opacity: 0.6; stroke-width: 1px; fill: rgb(45, 174, 127); fill-opacity: 1; stroke: rgb(255, 255, 255); stroke-opacity: 1;"/><path class="point" transform="translate(94.74,99.93)" d="M3.21,0A3.21,3.21 0 1,1 0,-3.21A3.21,3.21 0 0,1 3.21,0Z" style="opacity: 0.6; stroke-width: 1px; fill: rgb(193, 224, 42); fill-opacity: 1; stroke: rgb(255, 255, 255); stroke-opacity: 1;"/><path class="point" transform="translate(110.46,232.77)" d="M13.12,0A13.12,13.12 0 1,1 0,-13.12A13.12,13.12 0 0,1 13.12,0Z" style="opacity: 0.6; stroke-width: 1px; fill: rgb(36, 139, 140); fill-opacity: 1; stroke: rgb(255, 255, 255); stroke-opacity: 1;"/><path class="point" transform="translate(455.09,231.98)" d="M2.41,0A2.41,2.41 0 1,1 0,-2.41A2.41,2.41 0 0,1 2.41,0Z" style="opacity: 0.6; stroke-width: 1px; fill: rgb(47, 109, 142); fill-opacity: 1; stroke: rgb(255, 255, 255); stroke-opacity: 1;"/><path class="point" transform="translate(136.73,275.04)" d="M4.55,0A4.55,4.55 0 1,1 0,-4.55A4.55,4.55 0 0,1 4.55,0Z" style="opacity: 0.6; stroke-width: 1px; fill: rgb(41, 170, 130); fill-opacity: 1; stroke: rgb(255, 255, 255); stroke-opacity: 1;"/><path class="point" transform="translate(130.68,209.06)" d="M12.82,0A12.82,12.82 0 1,1 0,-12.82A12.82,12.82 0 0,1 12.82,0Z" style="opacity: 0.6; stroke-width: 1px; fill: rgb(39, 167, 131); fill-opacity: 1; stroke: rgb(255, 255, 255); stroke-opacity: 1;"/><path class="point" transform="translate(483.78,106.45)" d="M11.96,0A11.96,11.96 0 1,1 0,-11.96A11.96,11.96 0 0,1 11.96,0Z" style="opacity: 0.6; stroke-width: 1px; fill: rgb(157, 217, 58); fill-opacity: 1; stroke: rgb(255, 255, 255); stroke-opacity: 1;"/><path class="point" transform="translate(491.88,175.46)" d="M6.85,0A6.85,6.85 0 1,1 0,-6.85A6.85,6.85 0 0,1 6.85,0Z" style="opacity: 0.6; stroke-width: 1px; fill: rgb(40, 125, 142); fill-opacity: 1; stroke: rgb(255, 255, 255); stroke-opacity: 1;"/><path class="point" transform="translate(169.67,247.99)" d="M5.32,0A5.32,5.32 0 1,1 0,-5.32A5.32,5.32 0 0,1 5.32,0Z" style="opacity: 0.6; stroke-width: 1px; fill: rgb(70, 47, 124); fill-opacity: 1; stroke: rgb(255, 255, 255); stroke-opacity: 1;"/><path class="point" transform="translate(301.39,77.31)" d="M1.84,0A1.84,1.84 0 1,1 0,-1.84A1.84,1.84 0 0,1 1.84,0Z" style="opacity: 0.6; stroke-width: 1px; fill: rgb(70, 17, 98); fill-opacity: 1; stroke: rgb(255, 255, 255); stroke-opacity: 1;"/><path class="point" transform="translate(363.5,185.85)" d="M5.72,0A5.72,5.72 0 1,1 0,-5.72A5.72,5.72 0 0,1 5.72,0Z" style="opacity: 0.6; stroke-width: 1px; fill: rgb(68, 6, 88); fill-opacity: 1; stroke: rgb(255, 255, 255); stroke-opacity: 1;"/><path class="point" transform="translate(67.36,114.03)" d="M1.18,0A1.18,1.18 0 1,1 0,-1.18A1.18,1.18 0 0,1 1.18,0Z" style="opacity: 0.6; stroke-width: 1px; fill: rgb(58, 82, 138); fill-opacity: 1; stroke: rgb(255, 255, 255); stroke-opacity: 1;"/><path class="point" transform="translate(263.69,119.64)" d="M0.1,0A0.1,0.1 0 1,1 0,-0.1A0.1,0.1 0 0,1 0.1,0Z" style="opacity: 0.6; stroke-width: 1px; fill: rgb(34, 161, 135); fill-opacity: 1; stroke: rgb(255, 255, 255); stroke-opacity: 1;"/><path class="point" transform="translate(465.57,107.05)" d="M4.6,0A4.6,4.6 0 1,1 0,-4.6A4.6,4.6 0 0,1 4.6,0Z" style="opacity: 0.6; stroke-width: 1px; fill: rgb(210, 226, 41); fill-opacity: 1; stroke: rgb(255, 255, 255); stroke-opacity: 1;"/><path class="point" transform="translate(425.72,227.44)" d="M14.07,0A14.07,14.07 0 1,1 0,-14.07A14.07,14.07 0 0,1 14.07,0Z" style="opacity: 0.6; stroke-width: 1px; fill: rgb(162, 218, 55); fill-opacity: 1; stroke: rgb(255, 255, 255); stroke-opacity: 1;"/><path class="point" transform="translate(322.16,140.58)" d="M5.42,0A5.42,5.42 0 1,1 0,-5.42A5.42,5.42 0 0,1 5.42,0Z" style="opacity: 0.6; stroke-width: 1px; fill: rgb(70, 48, 124); fill-opacity: 1; stroke: rgb(255, 255, 255); stroke-opacity: 1;"/><path class="point" transform="translate(453.44,54.57)" d="M2.58,0A2.58,2.58 0 1,1 0,-2.58A2.58,2.58 0 0,1 2.58,0Z" style="opacity: 0.6; stroke-width: 1px; fill: rgb(105, 204, 91); fill-opacity: 1; stroke: rgb(255, 255, 255); stroke-opacity: 1;"/><path class="point" transform="translate(395.06,279.85)" d="M8.13,0A8.13,8.13 0 1,1 0,-8.13A8.13,8.13 0 0,1 8.13,0Z" style="opacity: 0.6; stroke-width: 1px; fill: rgb(41, 124, 142); fill-opacity: 1; stroke: rgb(255, 255, 255); stroke-opacity: 1;"/><path class="point" transform="translate(464.51,220.75)" d="M0.35,0A0.35,0.35 0 1,1 0,-0.35A0.35,0.35 0 0,1 0.35,0Z" style="opacity: 0.6; stroke-width: 1px; fill: rgb(71, 35, 115); fill-opacity: 1; stroke: rgb(255, 255, 255); stroke-opacity: 1;"/><path class="point" transform="translate(452.97,72.17)" d="M11.29,0A11.29,11.29 0 1,1 0,-11.29A11.29,11.29 0 0,1 11.29,0Z" style="opacity: 0.6; stroke-width: 1px; fill: rgb(66, 60, 130); fill-opacity: 1; stroke: rgb(255, 255, 255); stroke-opacity: 1;"/><path class="point" transform="translate(462.18,115.65)" d="M5.72,0A5.72,5.72 0 1,1 0,-5.72A5.72,5.72 0 0,1 5.72,0Z" style="opacity: 0.6; stroke-width: 1px; fill: rgb(58, 83, 139); fill-opacity: 1; stroke: rgb(255, 255, 255); stroke-opacity: 1;"/><path class="point" transform="translate(42.23,41.56)" d="M7.48,0A7.48,7.48 0 1,1 0,-7.48A7.48,7.48 0 0,1 7.48,0Z" style="opacity: 0.6; stroke-width: 1px; fill: rgb(228, 228, 39); fill-opacity: 1; stroke: rgb(255, 255, 255); stroke-opacity: 1;"/><path class="point" transform="translate(33.32,90.35)" d="M5.05,0A5.05,5.05 0 1,1 0,-5.05A5.05,5.05 0 0,1 5.05,0Z" style="opacity: 0.6; stroke-width: 1px; fill: rgb(57, 85, 139); fill-opacity: 1; stroke: rgb(255, 255, 255); stroke-opacity: 1;"/><path class="point" transform="translate(396.92,199.27)" d="M0.92,0A0.92,0.92 0 1,1 0,-0.92A0.92,0.92 0 0,1 0.92,0Z" style="opacity: 0.6; stroke-width: 1px; fill: rgb(54, 92, 140); fill-opacity: 1; stroke: rgb(255, 255, 255); stroke-opacity: 1;"/><path class="point" transform="translate(98.53,171.3)" d="M7.5,0A7.5,7.5 0 1,1 0,-7.5A7.5,7.5 0 0,1 7.5,0Z" style="opacity: 0.6; stroke-width: 1px; fill: rgb(73, 191, 110); fill-opacity: 1; stroke: rgb(255, 255, 255); stroke-opacity: 1;"/><path class="point" transform="translate(427.05,85.03)" d="M12.25,0A12.25,12.25 0 1,1 0,-12.25A12.25,12.25 0 0,1 12.25,0Z" style="opacity: 0.6; stroke-width: 1px; fill: rgb(48, 177, 125); fill-opacity: 1; stroke: rgb(255, 255, 255); stroke-opacity: 1;"/><path class="point" transform="translate(130.33,252.48)" d="M1.51,0A1.51,1.51 0 1,1 0,-1.51A1.51,1.51 0 0,1 1.51,0Z" style="opacity: 0.6; stroke-width: 1px; fill: rgb(47, 177, 125); fill-opacity: 1; stroke: rgb(255, 255, 255); stroke-opacity: 1;"/><path class="point" transform="translate(86.98,173.39)" d="M4.85,0A4.85,4.85 0 1,1 0,-4.85A4.85,4.85 0 0,1 4.85,0Z" style="opacity: 0.6; stroke-width: 1px; fill: rgb(253, 231, 37); fill-opacity: 1; stroke: rgb(255, 255, 255); stroke-opacity: 1;"/><path class="point" transform="translate(104.28,81.3)" d="M4.1,0A4.1,4.1 0 1,1 0,-4.1A4.1,4.1 0 0,1 4.1,0Z" style="opacity: 0.6; stroke-width: 1px; fill: rgb(36, 138, 141); fill-opacity: 1; stroke: rgb(255, 255, 255); stroke-opacity: 1;"/><path class="point" transform="translate(178.56,192.62)" d="M11.4,0A11.4,11.4 0 1,1 0,-11.4A11.4,11.4 0 0,1 11.4,0Z" style="opacity: 0.6; stroke-width: 1px; fill: rgb(66, 59, 130); fill-opacity: 1; stroke: rgb(255, 255, 255); stroke-opacity: 1;"/><path class="point" transform="translate(491.47,34.01)" d="M6.83,0A6.83,6.83 0 1,1 0,-6.83A6.83,6.83 0 0,1 6.83,0Z" style="opacity: 0.6; stroke-width: 1px; fill: rgb(36, 139, 140); fill-opacity: 1; stroke: rgb(255, 255, 255); stroke-opacity: 1;"/><path class="point" transform="translate(40.21,130.53)" d="M8.78,0A8.78,8.78 0 1,1 0,-8.78A8.78,8.78 0 0,1 8.78,0Z" style="opacity: 0.6; stroke-width: 1px; fill: rgb(69, 11, 93); fill-opacity: 1; stroke: rgb(255, 255, 255); stroke-opacity: 1;"/><path class="point" transform="translate(236.16,198.54)" d="M12.04,0A12.04,12.04 0 1,1 0,-12.04A12.04,12.04 0 0,1 12.04,0Z" style="opacity: 0.6; stroke-width: 1px; fill: rgb(57, 84, 139); fill-opacity: 1; stroke: rgb(255, 255, 255); stroke-opacity: 1;"/><path class="point" transform="translate(183.71,59.94)" d="M2.48,0A2.48,2.48 0 1,1 0,-2.48A2.48,2.48 0 0,1 2.48,0Z" style="opacity: 0.6; stroke-width: 1px; fill: rgb(224, 227, 39); fill-opacity: 1; stroke: rgb(255, 255, 255); stroke-opacity: 1;"/><path class="point" transform="translate(496.98,253.18)" d="M12.82,0A12.82,12.82 0 1,1 0,-12.82A12.82,12.82 0 0,1 12.82,0Z" style="opacity: 0.6; stroke-width: 1px; fill: rgb(70, 45, 123); fill-opacity: 1; stroke: rgb(255, 255, 255); stroke-opacity: 1;"/><path class="point" transform="translate(375.57,281.89)" d="M3.38,0A3.38,3.38 0 1,1 0,-3.38A3.38,3.38 0 0,1 3.38,0Z" style="opacity: 0.6; stroke-width: 1px; fill: rgb(70, 21, 102); fill-opacity: 1; stroke: rgb(255, 255, 255); stroke-opacity: 1;"/><path class="point" transform="translate(376.89,40.13)" d="M12.19,0A12.19,12.19 0 1,1 0,-12.19A12.19,12.19 0 0,1 12.19,0Z" style="opacity: 0.6; stroke-width: 1px; fill: rgb(154, 216, 60); fill-opacity: 1; stroke: rgb(255, 255, 255); stroke-opacity: 1;"/><path class="point" transform="translate(263.51,282.23)" d="M2.57,0A2.57,2.57 0 1,1 0,-2.57A2.57,2.57 0 0,1 2.57,0Z" style="opacity: 0.6; stroke-width: 1px; fill: rgb(217, 227, 40); fill-opacity: 1; stroke: rgb(255, 255, 255); stroke-opacity: 1;"/><path class="point" transform="translate(134.96,268.09)" d="M9.68,0A9.68,9.68 0 1,1 0,-9.68A9.68,9.68 0 0,1 9.68,0Z" style="opacity: 0.6; stroke-width: 1px; fill: rgb(70, 17, 99); fill-opacity: 1; stroke: rgb(255, 255, 255); stroke-opacity: 1;"/><path class="point" transform="translate(73.38,73.19)" d="M4.98,0A4.98,4.98 0 1,1 0,-4.98A4.98,4.98 0 0,1 4.98,0Z" style="opacity: 0.6; stroke-width: 1px; fill: rgb(49, 103, 142); fill-opacity: 1; stroke: rgb(255, 255, 255); stroke-opacity: 1;"/><path class="point" transform="translate(345.82,156.36)" d="M6.05,0A6.05,6.05 0 1,1 0,-6.05A6.05,6.05 0 0,1 6.05,0Z" style="opacity: 0.6; stroke-width: 1px; fill: rgb(49, 178, 124); fill-opacity: 1; stroke: rgb(255, 255, 255); stroke-opacity: 1;"/><path class="point" transform="translate(72.62,77.23)" d="M0.83,0A0.83,0.83 0 1,1 0,-0.83A0.83,0.83 0 0,1 0.83,0Z" style="opacity: 0.6; stroke-width: 1px; fill: rgb(39, 129, 142); fill-opacity: 1; stroke: rgb(255, 255, 255); stroke-opacity: 1;"/><path class="point" transform="translate(497.65,127.16)" d="M0.1,0A0.1,0.1 0 1,1 0,-0.1A0.1,0.1 0 0,1 0.1,0Z" style="opacity: 0.6; stroke-width: 1px; fill: rgb(216, 226, 40); fill-opacity: 1; stroke: rgb(255, 255, 255); stroke-opacity: 1;"/><path class="point" transform="translate(349.71,120.72)" d="M12.96,0A12.96,12.96 0 1,1 0,-12.96A12.96,12.96 0 0,1 12.96,0Z" style="opacity: 0.6; stroke-width: 1px; fill: rgb(40, 168, 131); fill-opacity: 1; stroke: rgb(255, 255, 255); stroke-opacity: 1;"/><path class="point" transform="translate(493.63,49.14)" d="M10.11,0A10.11,10.11 0 1,1 0,-10.11A10.11,10.11 0 0,1 10.11,0Z" style="opacity: 0.6; stroke-width: 1px; fill: rgb(44, 173, 128); fill-opacity: 1; stroke: rgb(255, 255, 255); stroke-opacity: 1;"/><path class="point" transform="translate(130.94,231.81)" d="M3.25,0A3.25,3.25 0 1,1 0,-3.25A3.25,3.25 0 0,1 3.25,0Z" style="opacity: 0.6; stroke-width: 1px; fill: rgb(46, 175, 126); fill-opacity: 1; stroke: rgb(255, 255, 255); stroke-opacity: 1;"/><path class="point" transform="translate(335.68,158.57)" d="M10.57,0A10.57,10.57 0 1,1 0,-10.57A10.57,10.57 0 0,1 10.57,0Z" style="opacity: 0.6; stroke-width: 1px; fill: rgb(35, 163, 134); fill-opacity: 1; stroke: rgb(255, 255, 255); stroke-opacity: 1;"/><path class="point" transform="translate(377.39,236.51)" d="M3.22,0A3.22,3.22 0 1,1 0,-3.22A3.22,3.22 0 0,1 3.22,0Z" style="opacity: 0.6; stroke-width: 1px; fill: rgb(37, 133, 142); fill-opacity: 1; stroke: rgb(255, 255, 255); stroke-opacity: 1;"/><path class="point" transform="translate(148.64,284.64)" d="M4.83,0A4.83,4.83 0 1,1 0,-4.83A4.83,4.83 0 0,1 4.83,0Z" style="opacity: 0.6; stroke-width: 1px; fill: rgb(31, 158, 137); fill-opacity: 1; stroke: rgb(255, 255, 255); stroke-opacity: 1;"/><path class="point" transform="translate(213.59,242.61)" d="M13.41,0A13.41,13.41 0 1,1 0,-13.41A13.41,13.41 0 0,1 13.41,0Z" style="opacity: 0.6; stroke-width: 1px; fill: rgb(149, 215, 63); fill-opacity: 1; stroke: rgb(255, 255, 255); stroke-opacity: 1;"/><path class="point" transform="translate(204.5,59.67)" d="M7.47,0A7.47,7.47 0 1,1 0,-7.47A7.47,7.47 0 0,1 7.47,0Z" style="opacity: 0.6; stroke-width: 1px; fill: rgb(36, 139, 140); fill-opacity: 1; stroke: rgb(255, 255, 255); stroke-opacity: 1;"/><path class="point" transform="translate(204.87,144.06)" d="M11.64,0A11.64,11.64 0 1,1 0,-11.64A11.64,11.64 0 0,1 11.64,0Z" style="opacity: 0.6; stroke-width: 1px; fill: rgb(124, 209, 79); fill-opacity: 1; stroke: rgb(255, 255, 255); stroke-opacity: 1;"/><path class="point" transform="translate(367.53,204.55)" d="M10.68,0A10.68,10.68 0 1,1 0,-10.68A10.68,10.68 0 0,1 10.68,0Z" style="opacity: 0.6; stroke-width: 1px; fill: rgb(35, 141, 140); fill-opacity: 1; stroke: rgb(255, 255, 255); stroke-opacity: 1;"/><path class="point" transform="translate(162.02,266.96)" d="M13.62,0A13.62,13.62 0 1,1 0,-13.62A13.62,13.62 0 0,1 13.62,0Z" style="opacity: 0.6; stroke-width: 1px; fill: rgb(68, 1, 84); fill-opacity: 1; stroke: rgb(255, 255, 255); stroke-opacity: 1;"/><path class="point" transform="translate(204.48,263.69)" d="M10.72,0A10.72,10.72 0 1,1 0,-10.72A10.72,10.72 0 0,1 10.72,0Z" style="opacity: 0.6; stroke-width: 1px; fill: rgb(119, 208, 82); fill-opacity: 1; stroke: rgb(255, 255, 255); stroke-opacity: 1;"/></g><g class="text"/></g></g></g><g class="overplot"/><path class="xlines-above crisp" d="M0,0" style="fill: none;"/><path class="ylines-above crisp" d="M0,0" style="fill: none;"/><g class="overlines-above"/><g class="xaxislayer-above"><g class="xtick"><text text-anchor="middle" x="0" y="433" transform="translate(111.14,0)" style="font-family: 'Open Sans', verdana, arial, sans-serif; font-size: 12px; fill: rgb(42, 63, 95); fill-opacity: 1; white-space: pre;">0</text></g><g class="xtick"><text text-anchor="middle" x="0" y="433" transform="translate(205.35,0)" style="font-family: 'Open Sans', verdana, arial, sans-serif; font-size: 12px; fill: rgb(42, 63, 95); fill-opacity: 1; white-space: pre;">0.2</text></g><g class="xtick"><text text-anchor="middle" x="0" y="433" transform="translate(299.56,0)" style="font-family: 'Open Sans', verdana, arial, sans-serif; font-size: 12px; fill: rgb(42, 63, 95); fill-opacity: 1; white-space: pre;">0.4</text></g><g class="xtick"><text text-anchor="middle" x="0" y="433" transform="translate(393.77,0)" style="font-family: 'Open Sans', verdana, arial, sans-serif; font-size: 12px; fill: rgb(42, 63, 95); fill-opacity: 1; white-space: pre;">0.6</text></g><g class="xtick"><text text-anchor="middle" x="0" y="433" transform="translate(487.98,0)" style="font-family: 'Open Sans', verdana, arial, sans-serif; font-size: 12px; fill: rgb(42, 63, 95); fill-opacity: 1; white-space: pre;">0.8</text></g><g class="xtick"><text text-anchor="middle" x="0" y="433" transform="translate(582.19,0)" style="font-family: 'Open Sans', verdana, arial, sans-serif; font-size: 12px; fill: rgb(42, 63, 95); fill-opacity: 1; white-space: pre;">1</text></g></g><g class="yaxislayer-above"><g class="ytick"><text text-anchor="end" x="79" y="4.199999999999999" transform="translate(0,390.35)" style="font-family: 'Open Sans', verdana, arial, sans-serif; font-size: 12px; fill: rgb(42, 63, 95); fill-opacity: 1; white-space: pre;">0</text></g><g class="ytick"><text text-anchor="end" x="79" y="4.199999999999999" transform="translate(0,338.31)" style="font-family: 'Open Sans', verdana, arial, sans-serif; font-size: 12px; fill: rgb(42, 63, 95); fill-opacity: 1; white-space: pre;">0.2</text></g><g class="ytick"><text text-anchor="end" x="79" y="4.199999999999999" transform="translate(0,286.27)" style="font-family: 'Open Sans', verdana, arial, sans-serif; font-size: 12px; fill: rgb(42, 63, 95); fill-opacity: 1; white-space: pre;">0.4</text></g><g class="ytick"><text text-anchor="end" x="79" y="4.199999999999999" transform="translate(0,234.23)" style="font-family: 'Open Sans', verdana, arial, sans-serif; font-size: 12px; fill: rgb(42, 63, 95); fill-opacity: 1; white-space: pre;">0.6</text></g><g class="ytick"><text text-anchor="end" x="79" y="4.199999999999999" transform="translate(0,182.19)" style="font-family: 'Open Sans', verdana, arial, sans-serif; font-size: 12px; fill: rgb(42, 63, 95); fill-opacity: 1; white-space: pre;">0.8</text></g><g class="ytick"><text text-anchor="end" x="79" y="4.199999999999999" transform="translate(0,130.15)" style="font-family: 'Open Sans', verdana, arial, sans-serif; font-size: 12px; fill: rgb(42, 63, 95); fill-opacity: 1; white-space: pre;">1</text></g></g><g class="overaxes-above"/></g></g><g class="polarlayer"/><g class="ternarylayer"/><g class="geolayer"/><g class="funnelarealayer"/><g class="pielayer"/><g class="sunburstlayer"/><g class="glimages"/><defs id="topdefs-f32892"><g class="clips"/></defs><g class="layer-above"><g class="imagelayer"/><g class="shapelayer"/></g><g class="infolayer"><g class="g-gtitle"/><g class="g-xtitle"/><g class="g-ytitle"/></g></svg>